#!OML:ASF H:\LiuWeirdWalks\Patient Classification 1\Patient 1\Session 1\male.ASF
:FULLY-SPECIFIED
:DEGREES
535
root -0.557804 17.8038 -18.3975 -0.260869 10.2852 7.03495
lowerback 10.1056 -1.73327 10.2039
upperback -0.157099 -0.35389 10.9463
thorax -5.91524 -0.261536 6.06107
lowerneck -13.2761 -2.61921 5.89526
upperneck 18.5387 0.272596 -26.4935
head 7.97759 -1.94143 -10.3367
rclavicle 1.03368e-014 -1.59028e-014
rhumerus -34.9366 -58.6973 34.949
rradius 24.3581
rwrist 10.2675
rhand -18.5936 8.60218
rfingers 7.12502
rthumb 7.69744 -21.2377
lclavicle 1.03368e-014 -1.59028e-014
lhumerus -7.40028 31.1627 -6.82848
lradius 25.3809
lwrist -10.4355
lhand -14.1837 1.37455
lfingers 7.12502
lthumb 11.952 31.0134
rfemur 5.15872 2.24534 12.5368
rtibia 26.4647
rfoot -21.1121 -19.8521
rtoes -6.77026
lfemur -24.7036 4.95821 -21.2307
ltibia 32.3025
lfoot -5.63913 -2.45499
ltoes -18.0511
536
root -0.548371 17.7982 -18.341 -0.201645 10.2906 6.71663
lowerback 10.0998 -1.70148 10.1745
upperback -0.158867 -0.318955 10.9125
thorax -5.91434 -0.244633 6.03371
lowerneck -13.279 -2.59681 6.01077
upperneck 18.4639 0.257704 -26.4526
head 7.94832 -1.93251 -10.3368
rclavicle -1.07344e-014 -9.54166e-015
rhumerus -34.8857 -58.6397 34.9901
rradius 24.379
rwrist 10.1983
rhand -18.5922 8.59553
rfingers 7.12502
rthumb 7.69875 -21.2443
lclavicle -1.07344e-014 -9.54166e-015
lhumerus -7.46287 31.347 -6.64562
lradius 25.1874
lwrist -10.74
lhand -14.302 1.49476
lfingers 7.12502
lthumb 11.8379 31.1402
rfemur 5.44366 2.01332 12.8201
rtibia 26.0368
rfoot -21.0581 -19.6631
rtoes -6.81533
lfemur -25.0048 4.58299 -21.0844
ltibia 32.0657
lfoot -5.85555 -2.75804
ltoes -18.3102
537
root -0.538027 17.7919 -18.2838 -0.129024 10.2934 6.4232
lowerback 10.0885 -1.66504 10.1176
upperback -0.159497 -0.282918 10.8712
thorax -5.90879 -0.226512 6.01264
lowerneck -13.2827 -2.56113 6.13603
upperneck 18.3574 0.253811 -26.411
head 7.91111 -1.91602 -10.335
rclavicle 3.22031e-014 -8.5875e-014
rhumerus -34.8743 -58.6561 35.0731
rradius 24.4019
rwrist 10.2209
rhand -18.5874 8.60332
rfingers 7.12502
rthumb 7.70337 -21.2364
lclavicle 3.22031e-014 -8.5875e-014
lhumerus -7.53037 31.4861 -6.47611
lradius 25.0107
lwrist -10.9965
lhand -14.222 1.45236
lfingers 7.12502
lthumb 11.9151 31.0933
rfemur 5.72 1.76229 13.0658
rtibia 25.6142
rfoot -21.004 -19.4603
rtoes -6.87175
lfemur -25.2951 4.15845 -20.9465
ltibia 31.8375
lfoot -6.07458 -3.06986
ltoes -18.5762
538
root -0.527433 17.7848 -18.2253 -0.0729847 10.2801 6.10838
lowerback 10.09 -1.62517 10.0654
upperback -0.149115 -0.240715 10.8365
thorax -5.8988 -0.205196 5.99545
lowerneck -13.3081 -2.52453 6.25922
upperneck 18.259 0.251462 -26.3583
head 7.88119 -1.89983 -10.33
rclavicle -1.66979e-014 7.95139e-014
rhumerus -34.8343 -58.6641 35.1131
rradius 24.434
rwrist 10.1952
rhand -18.6254 8.60749
rfingers 7.12502
rthumb 7.66671 -21.2335
lclavicle -1.66979e-014 7.95139e-014
lhumerus -7.61033 31.5907 -6.32354
lradius 24.8586
lwrist -11.1901
lhand -14.0197 1.34848
lfingers 7.12502
lthumb 12.1101 30.978
rfemur 6.01088 1.53183 13.3391
rtibia 25.193
rfoot -20.9528 -19.2708
rtoes -6.92895
lfemur -25.5561 3.70015 -20.7604
ltibia 31.631
lfoot -6.29466 -3.36559
ltoes -18.8477
539
root -0.516683 17.7767 -18.1659 -0.0315133 10.2485 5.76854
lowerback 10.1137 -1.58648 10.0176
upperback -0.140743 -0.194639 10.8113
thorax -5.90391 -0.182162 5.98703
lowerneck -13.322 -2.50664 6.30892
upperneck 18.1893 0.233279 -26.2466
head 7.85589 -1.89251 -10.2902
rclavicle -2.50469e-014 5.725e-014
rhumerus -34.7164 -58.6478 35.0628
rradius 24.4737
rwrist 10.1241
rhand -18.7024 8.60776
rfingers 7.12502
rthumb 7.59236 -21.236
lclavicle -2.50469e-014 5.725e-014
lhumerus -7.71703 31.6194 -6.19498
lradius 24.7449
lwrist -11.3122
lhand -13.8408 1.30499
lfingers 7.12502
lthumb 12.2826 30.9243
rfemur 6.31063 1.33553 13.6493
rtibia 24.7774
rfoot -20.8993 -19.1108
rtoes -7.00005
lfemur -25.7935 3.21965 -20.5223
ltibia 31.4512
lfoot -6.50279 -3.6125
ltoes -19.1128
540
root -0.505753 17.7678 -18.1054 -0.00233068 10.197 5.40071
lowerback 10.1521 -1.54211 9.98427
upperback -0.123828 -0.137523 10.7931
thorax -5.90866 -0.153915 5.97691
lowerneck -13.3832 -2.49982 6.31226
upperneck 18.1795 0.213443 -26.0897
head 7.85955 -1.89139 -10.2309
rclavicle 1.07344e-014 -3.18055e-015
rhumerus -34.6171 -58.6687 35.0282
rradius 24.5061
rwrist 10.1259
rhand -18.7645 8.62668
rfingers 7.12502
rthumb 7.53243 -21.2192
lclavicle 1.07344e-014 -3.18055e-015
lhumerus -7.81599 31.6707 -6.06795
lradius 24.6587
lwrist -11.3776
lhand -14.1104 1.44595
lfingers 7.12502
lthumb 12.0226 31.0806
rfemur 6.61494 1.17943 14.0006
rtibia 24.3695
rfoot -20.8433 -18.9809
rtoes -7.0856
lfemur -26.0114 2.72041 -20.2296
ltibia 31.3064
lfoot -6.70345 -3.78899
ltoes -19.3684
541
root -0.494411 17.758 -18.0439 0.0247599 10.1206 5.02298
lowerback 10.2018 -1.49242 9.94578
upperback -0.108671 -0.0716102 10.778
thorax -5.92205 -0.121341 5.97231
lowerneck -13.4191 -2.50137 6.30112
upperneck 18.1894 0.185177 -25.9161
head 7.86291 -1.89336 -10.1634
rclavicle 3.49861e-014 -4.77083e-014
rhumerus -34.476 -58.6824 34.9448
rradius 24.5325
rwrist 10.1341
rhand -18.834 8.64931
rfingers 7.12502
rthumb 7.46534 -21.199
lclavicle 3.49861e-014 -4.77083e-014
lhumerus -7.93314 31.6458 -5.96217
lradius 24.614
lwrist -11.3522
lhand -14.3109 1.51587
lfingers 7.12502
lthumb 11.8293 31.1618
rfemur 6.90899 1.0551 14.3668
rtibia 23.9823
rfoot -20.7901 -18.8672
rtoes -7.19382
lfemur -26.2161 2.20903 -19.9044
ltibia 31.1952
lfoot -6.88707 -3.87886
ltoes -19.5851
542
root -0.482317 17.7475 -17.9818 0.0548578 10.0251 4.63854
lowerback 10.2625 -1.43721 9.91243
upperback -0.0942318 0.00401963 10.7606
thorax -5.94279 -0.0843655 5.96111
lowerneck -13.4723 -2.50272 6.29044
upperneck 18.256 0.166731 -25.7349
head 7.88988 -1.89358 -10.0981
rclavicle 1.07344e-014 1.17681e-013
rhumerus -34.3237 -58.6872 34.8436
rradius 24.5466
rwrist 10.1753
rhand -18.8671 8.69476
rfingers 7.12502
rthumb 7.43346 -21.1546
lclavicle 1.07344e-014 1.17681e-013
lhumerus -8.03635 31.6921 -5.86193
lradius 24.5736
lwrist -11.3807
lhand -14.2686 1.26609
lfingers 7.12502
lthumb 11.8701 30.9096
rfemur 7.1821 0.951165 14.7401
rtibia 23.6271
rfoot -20.7464 -18.7619
rtoes -7.32135
lfemur -26.4146 1.70621 -19.5594
ltibia 31.1217
lfoot -7.04829 -3.91169
ltoes -19.7483
543
root -0.468568 17.7364 -17.9189 0.0983799 9.92153 4.28036
lowerback 10.2992 -1.37844 9.86463
upperback -0.0677916 0.0755162 10.7305
thorax -5.93652 -0.0487956 5.94266
lowerneck -13.5133 -2.50766 6.28181
upperneck 18.307 0.138136 -25.5481
head 7.90744 -1.89643 -10.0299
rclavicle 2.42517e-014 -4.45278e-014
rhumerus -34.1936 -58.7396 34.7527
rradius 24.5494
rwrist 10.2453
rhand -18.892 8.7228
rfingers 7.12502
rthumb 7.4094 -21.1274
lclavicle 2.42517e-014 -4.45278e-014
lhumerus -8.15243 31.7098 -5.78433
lradius 24.5592
lwrist -11.3622
lhand -14.2905 1.18952
lfingers 7.12502
lthumb 11.849 30.8343
rfemur 7.42464 0.829771 15.0692
rtibia 23.3217
rfoot -20.7263 -18.633
rtoes -7.47097
lfemur -26.6052 1.2199 -19.2415
ltibia 31.083
lfoot -7.18646 -3.91849
ltoes -19.8697
